<?xml version="1.0" standalone="no"?>
<!DOCTYPE svg PUBLIC "-//W3C//DTD SVG 20010904//EN"
 "http://www.w3.org/TR/2001/REC-SVG-20010904/DTD/svg10.dtd">
<svg version="1.0" xmlns="http://www.w3.org/2000/svg"
 width="460.000000pt" height="460.000000pt" viewBox="0 0 460.000000 460.000000"
 preserveAspectRatio="xMidYMid meet">
<metadata>
Created by potrace 1.14, written by Peter Selinger 2001-2017
</metadata>
<g transform="translate(0.000000,460.000000) scale(0.100000,-0.100000)"
fill="#000000" stroke="none">
<path d="M0 4263 l0 -338 60 -3 c49 -2 60 0 60 13 0 16 1 17 40 19 16 1 28 -7
36 -22 7 -15 13 -19 16 -11 3 8 20 13 43 12 24 -1 43 5 50 13 6 9 17 16 25 18
48 9 68 21 90 53 14 19 34 42 44 51 11 10 30 28 42 42 13 14 29 30 35 35 6 6
27 27 47 48 34 36 36 36 55 20 19 -17 20 -17 8 4 -13 25 -16 56 -3 36 5 -8 11
-3 19 13 6 13 8 22 3 19 -4 -3 -10 9 -12 25 -3 20 0 30 9 30 9 0 13 13 13 40
0 27 5 43 15 46 8 4 15 15 15 26 0 14 6 19 23 16 19 -3 23 -10 27 -66 5 -60 5
-62 18 -35 17 37 87 71 140 69 26 -2 43 2 46 11 3 7 21 13 40 13 19 0 36 5 38
12 2 6 26 14 54 18 27 4 75 13 107 20 33 6 66 9 74 6 8 -3 12 -2 10 2 -3 4 1
13 9 20 12 11 14 9 14 -8 0 -11 4 -20 10 -20 5 0 7 7 4 15 -4 8 -1 15 5 15 6
0 11 14 11 30 l0 30 -214 0 c-133 0 -217 -4 -221 -10 -8 -13 -60 -13 -104 0
-19 5 -38 7 -42 4 -14 -8 2 -34 22 -34 20 0 26 -24 8 -35 -6 -4 -8 -13 -6 -19
7 -18 -9 -40 -22 -32 -6 4 -11 20 -11 35 0 20 -6 30 -20 34 -11 3 -20 12 -20
21 0 9 -8 16 -20 16 -11 0 -20 5 -20 10 0 6 -118 10 -335 10 l-335 0 0 -337z
m797 181 c-3 -3 -12 -4 -19 -1 -8 3 -5 6 6 6 11 1 17 -2 13 -5z"/>
<path d="M1380 4585 c0 -8 4 -15 10 -15 5 0 7 -6 4 -14 -3 -8 -1 -17 5 -21 6
-3 11 0 11 7 0 7 3 23 6 36 5 18 2 22 -15 22 -12 0 -21 -6 -21 -15z"/>
<path d="M1430 4581 c0 -11 5 -23 10 -26 6 -4 10 5 10 19 0 14 -4 26 -10 26
-5 0 -10 -9 -10 -19z"/>
<path d="M1793 4589 c10 -6 25 -8 33 -5 8 3 14 2 14 -2 0 -5 15 -6 34 -4 25 3
37 -1 47 -15 11 -14 20 -17 39 -12 l25 7 -25 2 c-24 2 -24 3 5 11 27 8 27 8
-8 4 -33 -3 -37 -2 -27 10 11 13 1 15 -71 15 -64 -1 -80 -3 -66 -11z"/>
<path d="M2020 4590 c0 -5 5 -10 11 -10 5 0 7 -4 4 -10 -4 -6 5 -10 19 -10 14
0 26 -3 26 -7 0 -15 -15 -28 -30 -28 -8 0 -16 -8 -18 -17 -2 -12 3 -18 15 -17
10 0 13 3 6 6 -7 2 -13 9 -13 14 0 6 7 6 18 1 9 -5 23 -8 30 -6 7 1 8 0 2 -3
-5 -2 -7 -10 -3 -16 3 -7 3 -9 -1 -5 -7 6 -39 -1 -78 -17 -14 -6 -18 -2 -18
19 0 32 -23 26 -58 -16 -13 -15 -31 -27 -40 -27 -16 1 -16 2 0 6 21 5 32 33
13 33 -29 0 -78 -55 -78 -87 0 -25 -6 -32 -31 -41 -39 -14 -120 -91 -156 -149
l-29 -45 -3 39 -3 38 -19 -50 c-27 -71 -38 -80 -93 -77 l-47 2 22 -22 c22 -22
24 -22 67 -7 39 14 45 14 50 1 7 -18 10 -15 -52 -42 -81 -34 -98 -59 -99 -141
-1 -58 -5 -74 -24 -94 -24 -26 -51 -36 -31 -12 6 8 7 18 3 22 -4 5 -2 5 5 1 6
-3 15 -1 19 6 4 7 4 10 -1 6 -4 -4 -14 -3 -22 3 -10 9 -13 8 -13 -4 0 -26 -22
-67 -37 -67 -7 0 -13 -9 -13 -20 0 -19 14 -24 58 -23 6 1 12 -11 13 -26 0 -25
0 -25 9 -3 14 35 31 27 18 -8 -6 -17 -8 -44 -5 -60 7 -34 -5 -45 -55 -53 -38
-6 -67 13 -69 44 -1 28 -18 -27 -18 -62 -1 -33 3 -39 35 -54 l36 -17 -38 -39
c-33 -34 -37 -44 -36 -83 1 -25 11 -61 23 -81 22 -37 53 -51 97 -42 25 5 29 1
46 -39 23 -57 67 -94 112 -94 24 0 34 -5 34 -15 0 -9 12 -27 26 -42 14 -14 24
-26 22 -28 -2 -1 -23 -14 -48 -28 -51 -30 -104 -90 -125 -142 -9 -21 -15 -68
-15 -120 0 -57 -4 -85 -11 -85 -15 0 -200 -133 -245 -176 -36 -33 -40 -34 -24
-4 7 14 6 20 -7 24 -9 4 -18 4 -21 1 -3 -3 0 -5 6 -5 7 0 12 -4 12 -10 0 -19
-20 -10 -26 13 -7 28 -74 63 -86 44 -5 -9 -12 -6 -23 10 -27 39 -52 46 -75 23
-20 -20 -29 -56 -10 -45 11 7 60 -4 60 -14 -1 -23 -24 -35 -79 -37 -49 -3 -67
1 -95 19 -19 12 -35 29 -35 37 -1 21 16 45 31 45 7 0 13 10 14 22 1 12 4 29 8
39 6 15 9 15 31 -6 l25 -23 0 21 c0 22 -14 27 -66 23 -25 -2 -57 30 -36 36 20
7 14 18 -25 38 -44 23 -63 39 -63 53 0 6 -15 23 -33 38 -17 15 -31 31 -30 35
2 5 -5 5 -15 2 -16 -6 -16 -5 0 14 10 11 18 24 18 29 0 5 -4 3 -9 -4 -4 -7
-24 -17 -43 -21 -45 -10 -82 20 -98 78 -16 60 -49 111 -71 111 -18 0 -23 10
-19 39 1 8 -4 18 -12 22 -10 7 -11 12 0 29 11 17 10 20 -7 20 -14 0 -21 10
-26 36 -3 20 -16 53 -29 73 -12 20 -23 45 -23 56 -2 29 -21 75 -31 75 -5 0
-15 25 -22 56 -10 41 -19 58 -35 64 -12 5 -25 15 -28 23 -7 18 -64 21 -95 5
-19 -10 -25 -9 -33 2 -5 8 -8 22 -6 30 3 18 47 27 47 9 0 -9 3 -9 15 1 8 6 18
9 22 7 5 -3 17 1 27 9 15 10 16 16 7 27 -9 12 -6 13 16 9 16 -2 25 -1 21 3 -4
5 -3 14 2 20 8 9 4 11 -16 7 -19 -3 -25 -1 -20 7 4 6 14 11 22 11 8 0 13 4 9
10 -3 5 -22 7 -42 4 -20 -2 -48 2 -64 10 -24 12 -28 12 -33 0 -8 -21 -26 -17
-36 9 -7 17 -9 18 -9 5 -1 -10 -5 -18 -11 -18 -5 0 -10 -22 -10 -49 0 -40 3
-50 20 -54 28 -7 28 -70 0 -94 -19 -16 -20 -30 -20 -234 0 -184 2 -218 15
-223 10 -4 15 -20 15 -51 0 -33 -4 -45 -15 -45 -13 0 -15 -30 -15 -210 l0
-210 23 -1 c80 -5 134 -4 149 3 10 5 20 4 24 -3 4 -7 23 -9 50 -5 50 6 104
-18 104 -47 0 -14 -7 -16 -35 -13 -19 2 -39 7 -44 10 -5 4 -12 2 -16 -4 -9
-14 -42 -13 -49 3 -5 10 -7 10 -12 0 -7 -17 -48 -17 -75 0 -17 10 -23 10 -26
0 -6 -15 -33 -17 -33 -3 0 6 -7 10 -15 10 -8 0 -15 -4 -15 -10 0 -5 -7 -10
-15 -10 -13 0 -15 -83 -15 -691 l0 -692 64 7 c83 8 99 2 91 -36 -4 -16 -3 -34
2 -41 5 -7 7 -37 4 -67 -4 -51 -5 -53 -11 -20 -6 35 -6 35 -17 -20 -11 -52
-11 -50 -10 55 2 107 1 110 -20 113 -13 2 -32 -6 -45 -18 -21 -19 -21 -20 -3
-19 11 1 30 1 42 1 25 -2 25 3 3 -172 -6 -41 -19 -154 -31 -250 -11 -96 -22
-176 -25 -179 -8 -9 -3 44 26 276 17 129 30 237 30 239 0 2 -22 4 -50 4 l-50
0 0 -35 c0 -34 1 -35 40 -35 l40 0 -6 -47 c-3 -27 -10 -79 -15 -118 -42 -317
-59 -495 -56 -615 2 -87 5 -105 18 -108 10 -2 21 9 29 28 17 40 153 228 177
244 31 21 165 64 223 71 30 4 77 14 103 22 69 22 133 12 262 -39 96 -39 114
-50 139 -86 19 -26 30 -57 33 -89 4 -43 1 -52 -27 -88 l-33 -40 6 63 c3 34 2
62 -3 62 -14 0 -20 -29 -20 -91 l0 -59 1845 0 1845 0 0 150 0 150 -98 0 -97 0
-50 41 c-46 38 -50 40 -53 20 -2 -11 -11 -22 -20 -23 -9 -1 -24 -2 -32 -4 -8
-1 -23 -2 -33 -3 -11 -1 -15 -6 -11 -12 4 -8 30 -10 75 -7 38 3 69 1 69 -3 0
-5 -4 -9 -10 -9 -5 0 -10 -7 -10 -15 0 -12 -18 -15 -100 -15 l-99 0 -7 -36
c-5 -27 -2 -38 10 -47 11 -8 19 -33 23 -70 l6 -57 -37 0 -38 0 7 43 c5 39 5
40 -9 23 -8 -10 -17 -24 -19 -30 -6 -15 -57 41 -73 79 -7 18 -14 70 -15 116
-3 100 11 135 73 179 34 25 51 30 98 30 69 0 226 -44 330 -92 42 -19 85 -38
98 -42 l22 -7 0 560 c0 545 -1 560 -19 566 -11 3 -29 0 -39 -6 -16 -10 -25
-10 -46 4 -48 32 -22 60 51 55 l48 -3 3 183 2 183 -52 -1 c-73 -2 -75 -2 -82
15 -10 27 19 43 65 35 24 -4 49 -6 56 -3 10 4 13 58 13 259 l0 254 -43 0 c-24
0 -47 4 -52 9 -6 6 -32 11 -60 13 -46 3 -50 5 -50 28 0 21 5 25 30 27 17 2 45
6 62 9 25 5 34 2 39 -10 7 -19 33 -20 57 -2 12 9 17 27 17 62 0 42 -4 51 -25
60 -13 7 -27 9 -30 5 -4 -3 -10 -6 -13 -7 -4 0 -15 -4 -26 -9 -11 -5 -26 -3
-39 4 -14 9 -22 10 -30 2 -18 -18 -37 -12 -49 15 -11 24 -13 25 -25 8 -18 -24
-48 -7 -48 27 0 20 5 24 30 25 17 0 38 4 49 9 11 5 26 4 37 -3 14 -9 25 -9 43
0 20 8 29 8 41 -2 9 -8 27 -10 50 -6 31 6 35 11 35 36 0 17 -5 30 -12 30 -27
1 -174 11 -198 15 -14 2 -28 4 -31 4 -13 2 -19 33 -10 49 8 15 11 13 22 -13
l12 -30 8 31 c10 35 32 49 57 35 9 -5 40 -10 67 -11 94 -5 85 -26 85 210 0
209 0 211 -22 219 -13 5 -27 5 -32 0 -14 -13 -60 -11 -74 3 -8 8 -15 8 -25 -1
-34 -28 -74 36 -42 68 12 13 19 13 34 4 15 -10 22 -9 31 2 9 11 17 12 38 2 15
-6 30 -15 33 -19 3 -4 17 -2 32 5 21 9 27 19 27 45 0 23 -5 32 -17 33 -10 1
-25 2 -33 3 -17 1 -28 76 -11 76 6 0 11 -7 11 -15 0 -20 13 -19 33 3 15 17 17
70 17 555 l0 537 -69 0 c-49 0 -72 -4 -81 -15 -17 -21 -50 -19 -51 3 -2 20
-18 -54 -18 -83 0 -18 1 -18 12 3 7 12 16 19 20 16 12 -13 7 -44 -8 -50 -8 -4
-15 -17 -15 -30 0 -14 -7 -27 -15 -31 -23 -8 -28 2 -15 26 8 17 8 21 -4 21
-18 0 -31 39 -18 52 6 6 8 16 6 23 -3 7 -1 16 5 20 6 3 11 15 11 26 0 17 -7
19 -64 19 -44 0 -67 -5 -76 -15 -10 -12 -42 -15 -170 -15 -128 0 -160 3 -170
15 -7 8 -16 15 -21 15 -5 0 -9 -7 -9 -15 0 -19 -53 -20 -68 -2 -8 9 -26 11
-59 8 -40 -5 -49 -10 -51 -28 -2 -13 2 -23 8 -23 7 0 10 -7 6 -15 -3 -8 0 -15
5 -15 7 0 9 -9 6 -21 -3 -12 0 -22 9 -26 18 -7 18 -23 -1 -23 -12 0 -13 -5 -4
-27 9 -24 7 -30 -15 -48 -14 -12 -26 -28 -26 -37 0 -24 -28 -48 -46 -41 -15 5
-15 7 0 15 9 5 16 16 16 24 0 8 15 28 33 44 17 16 26 30 20 30 -7 0 -13 9 -13
20 0 13 -10 24 -25 30 -30 11 -33 30 -5 30 21 0 28 24 10 35 -6 3 -7 17 -4 31
5 19 2 24 -14 24 -11 0 -23 7 -26 15 -4 12 -14 14 -43 9 -21 -4 -44 -13 -51
-21 -22 -22 -92 -14 -92 11 0 8 -20 12 -60 11 -41 0 -60 -4 -60 -12 0 -17 -20
-16 -44 2 -26 20 -106 19 -134 0 -18 -13 -50 -15 -193 -12 -117 3 -174 8 -179
16 -5 9 -14 9 -35 -1 -22 -10 -29 -10 -33 0 -5 17 -29 15 -40 -4 -6 -11 -16
-13 -35 -9 -15 4 -27 11 -27 17 0 10 -65 1 -93 -14 -13 -7 -24 -5 -36 6 -15
14 -50 16 -224 16 -131 0 -207 -4 -207 -10z m2365 -199 c3 -6 -2 -14 -10 -19
-20 -11 -10 -39 17 -48 12 -3 17 -11 14 -21 -3 -8 -6 -23 -6 -34 0 -13 -7 -19
-21 -19 -16 0 -19 4 -14 20 4 12 2 27 -5 35 -6 7 -15 27 -20 44 -7 25 -5 33 8
41 22 12 29 12 37 1z m40 -1 c3 -5 1 -10 -4 -10 -6 0 -11 5 -11 10 0 6 2 10 4
10 3 0 8 -4 11 -10z m-1528 -90 c3 -34 1 -40 -15 -40 -16 0 -25 11 -50 63 -2
4 5 7 17 7 11 0 23 5 26 11 11 16 18 2 22 -41z m791 -148 c2 -114 1 -123 -15
-120 -12 2 -17 11 -15 24 2 15 -4 23 -18 27 -23 6 -27 42 -5 51 11 4 15 22 15
76 0 63 2 71 18 68 15 -3 17 -18 20 -126z m702 -27 c0 -57 4 -95 10 -95 6 0
10 -4 10 -10 0 -5 -12 -10 -26 -10 -23 0 -26 3 -22 30 4 23 1 30 -13 30 -24 0
-31 27 -11 46 18 18 18 20 20 72 1 21 7 32 17 32 12 0 15 -17 15 -95z m-1340
0 c14 -19 14 -19 -2 -6 -10 7 -18 18 -18 24 0 6 1 8 3 6 1 -2 9 -13 17 -24z
m96 -79 c-4 -18 -18 -44 -33 -57 l-26 -24 26 40 c15 22 27 53 28 70 0 16 3 24
6 17 3 -7 2 -28 -1 -46z m549 -100 c19 -28 11 -54 -20 -62 -32 -8 -65 12 -65
39 0 49 58 65 85 23z m684 -13 c18 -16 19 -21 8 -43 -14 -29 -41 -37 -62 -20
-20 17 -19 57 3 69 23 14 27 14 51 -6z m-1038 -185 c-16 -49 -50 -83 -101
-103 -54 -20 -49 -12 11 18 34 17 50 34 69 73 28 57 38 63 21 12z m-667 6 c9
-3 16 -16 16 -28 0 -11 5 -28 11 -36 7 -11 8 -5 3 23 -7 43 -3 44 41 17 35
-22 82 -100 61 -100 -25 0 -57 -52 -62 -98 l-6 -47 57 -40 c96 -68 104 -77 98
-107 -4 -22 -11 -28 -32 -28 -21 0 -29 7 -39 38 -8 20 -14 45 -15 54 -1 9 -5
14 -10 11 -4 -3 -17 3 -27 12 -52 47 -191 60 -262 24 -59 -30 -114 -92 -127
-143 l-11 -44 -62 3 c-49 2 -64 6 -66 19 -3 13 6 16 47 16 59 0 68 19 26 52
-30 23 -32 61 -6 87 11 11 48 25 87 33 l68 13 28 55 c15 30 28 69 28 86 0 23
5 33 19 37 20 5 65 80 54 91 -8 8 60 8 81 0z m-410 -45 c-4 -8 28 -31 38 -26
2 1 -17 -18 -43 -43 -61 -59 -79 -101 -79 -186 l0 -67 -22 20 c-13 11 -31 23
-40 26 -14 5 -15 12 -8 37 5 19 5 41 0 55 -8 21 -6 24 21 30 41 9 59 31 59 71
0 19 5 34 10 34 6 0 22 12 35 26 27 29 33 43 12 26 -10 -8 -13 -5 -15 15 -2
25 -1 26 18 8 11 -10 17 -21 14 -26z m984 -108 c10 -6 10 -10 -1 -20 -12 -9
-16 -7 -20 9 -5 21 0 25 21 11z m512 -60 c0 -14 11 -20 50 -25 52 -7 76 -29
64 -60 -5 -12 -21 -16 -69 -16 -73 0 -79 7 -69 81 6 45 24 60 24 20z m234 -31
c9 0 16 -4 16 -9 0 -5 9 -11 21 -14 13 -4 20 -12 17 -24 -2 -14 -14 -19 -56
-21 l-52 -3 0 44 c0 50 9 65 26 43 6 -9 19 -16 28 -16z m144 10 c13 -21 77
-29 84 -11 2 5 16 13 31 16 23 6 29 4 34 -14 7 -27 21 -27 25 1 3 23 28 38 28
16 0 -9 14 -13 41 -14 41 0 59 -14 59 -45 0 -21 -85 -33 -111 -16 -13 8 -24 8
-41 -1 -27 -14 -120 -10 -160 6 -21 9 -28 18 -28 40 0 45 17 55 38 22z m-1325
-20 c3 -11 1 -18 -4 -14 -5 3 -9 12 -9 20 0 20 7 17 13 -6z m547 -20 c0 -5 -4
-10 -10 -10 -5 0 -10 5 -10 10 0 6 5 10 10 10 6 0 10 -4 10 -10z m-80 -30 c22
-7 21 -8 -12 -9 -21 -1 -38 4 -38 9 0 11 14 11 50 0z m-619 -30 c36 -10 119
-78 119 -97 0 -6 -9 -13 -20 -16 -15 -4 -22 2 -30 29 -15 44 -59 75 -123 84
-42 6 -45 8 -17 9 19 0 51 -4 71 -9z m-146 -20 c-22 -11 -36 -19 -31 -20 5 0
-3 -12 -18 -26 -14 -15 -26 -31 -26 -36 0 -5 -4 -7 -9 -3 -6 3 -1 20 10 39 19
33 69 66 99 65 8 0 -3 -8 -25 -19z m855 -30 c0 -14 -91 -114 -111 -122 -10 -4
9 20 41 54 33 34 60 65 60 70 0 4 2 8 5 8 3 0 5 -4 5 -10z m633 -19 c30 -16
47 -31 47 -43 0 -15 -8 -18 -55 -17 l-55 2 0 44 c0 25 3 43 8 41 4 -1 29 -14
55 -27z m130 9 c6 -23 55 -28 85 -9 12 7 25 7 45 0 24 -9 28 -16 25 -43 -3
-37 -35 -50 -58 -23 -8 10 -30 15 -67 15 -59 0 -70 11 -59 55 8 30 22 33 29 5z
m-1985 -15 c-3 -3 -9 2 -12 12 -6 14 -5 15 5 6 7 -7 10 -15 7 -18z m1723 9
c13 -8 3 -69 -11 -71 -76 -10 -90 -15 -90 -33 0 -12 8 -20 23 -22 19 -3 22 -9
22 -43 0 -36 -2 -40 -32 -46 -20 -4 -36 -2 -42 5 -10 12 -13 150 -4 199 5 28
5 28 66 21 34 -4 65 -8 68 -10z m504 -14 c4 -6 -5 -10 -19 -10 -14 0 -26 5
-26 10 0 6 9 10 19 10 11 0 23 -4 26 -10z m-2166 -80 c0 -10 -3 -8 -9 5 -12
27 -12 43 0 25 5 -8 9 -22 9 -30z m-414 -25 c14 -70 19 -101 18 -112 0 -7 3
-10 8 -7 5 3 9 -1 9 -8 0 -7 20 -32 43 -54 34 -33 55 -44 102 -54 140 -29 233
26 273 162 14 49 21 58 40 58 23 0 24 -2 17 -62 -4 -35 -16 -88 -26 -118 -23
-62 -19 -108 11 -135 18 -16 23 -17 48 -5 l27 14 -25 4 c-14 2 -31 9 -37 14
-17 14 -16 77 1 119 7 19 17 64 21 102 6 62 8 67 31 67 17 0 24 -6 24 -20 0
-31 41 -101 82 -141 43 -41 110 -65 160 -55 18 3 35 5 38 4 6 -2 41 25 77 60
14 12 29 19 35 16 7 -4 8 -2 4 4 -3 6 5 39 19 73 14 34 25 68 25 76 0 7 11 13
25 13 14 0 25 -2 25 -5 0 -28 -51 -177 -81 -239 -55 -110 -88 -152 -192 -247
-90 -81 -244 -189 -270 -189 -19 0 -148 69 -167 90 -3 3 -23 17 -46 32 -60 38
-161 134 -197 187 -41 60 -122 215 -107 206 11 -7 -8 34 -21 45 -6 5 -23 57
-33 102 -5 22 -3 27 14 25 12 -1 22 -10 25 -22z m1412 -86 c-23 -42 -77 -89
-101 -89 -6 0 7 11 30 25 31 18 47 38 64 77 12 29 24 48 27 42 2 -7 -7 -31
-20 -55z m-487 -44 c-29 -35 -71 -48 -142 -43 -52 4 -72 10 -83 24 -8 11 -15
23 -15 27 0 14 32 20 40 7 4 -7 36 -15 76 -17 59 -5 73 -2 94 15 28 23 51 13
30 -13z m-545 -6 c-3 -4 -12 -6 -21 -2 -9 3 -14 0 -12 -8 3 -14 -56 -46 -103
-56 -22 -4 -29 -2 -29 11 0 10 8 16 23 16 12 0 28 9 34 20 7 11 27 23 45 28
36 9 71 5 63 -9z m-497 -24 c-2 -20 -8 -25 -30 -25 -15 0 -29 4 -32 9 -4 5 2
7 11 5 11 -3 24 4 33 16 19 26 20 25 18 -5z m-1590 -57 c-2 -24 -7 -43 -13
-43 -5 0 -11 19 -13 43 -3 33 0 42 13 42 13 0 16 -9 13 -42z m198 -3 c20 -31
13 -52 -21 -61 -80 -20 -124 61 -50 94 25 12 49 0 71 -33z m90 13 c-2 -18 -4
-41 -5 -50 -1 -11 -9 -18 -21 -18 -22 0 -26 6 -34 63 -5 37 -4 37 30 37 32 0
34 -1 30 -32z m1607 25 c-7 -2 -19 -2 -25 0 -7 3 -2 5 12 5 14 0 19 -2 13 -5z
m907 -14 c0 -5 -7 -9 -15 -9 -15 0 -20 12 -9 23 8 8 24 -1 24 -14z m900 -9
c37 -38 38 -58 3 -66 -46 -12 -72 19 -59 72 8 32 20 30 56 -6z m-720 -9 c3 -1
-1 -5 -9 -10 -16 -10 -44 -3 -36 9 3 5 13 7 23 5 9 -2 19 -4 22 -4z m-2922
-34 c3 -14 -1 -18 -20 -15 -12 2 -24 11 -26 21 -3 14 1 18 20 15 12 -2 24 -11
26 -21z m3578 -82 c-5 -18 -1 -27 13 -34 15 -9 20 -7 24 9 3 13 14 20 31 20
20 0 27 -6 32 -27 4 -16 13 -35 21 -45 8 -9 11 -18 6 -20 -19 -11 -125 -9
-139 2 -16 14 -19 73 -4 101 15 27 23 24 16 -6z m258 -20 c4 13 10 14 26 5 11
-6 37 -10 58 -10 20 0 58 -2 83 -6 28 -4 54 -2 68 5 34 18 63 -2 59 -42 -3
-29 -6 -32 -33 -29 -120 13 -148 14 -265 9 -31 -2 -35 1 -38 26 -2 16 -1 36 3
45 6 16 7 16 20 -1 11 -15 13 -16 19 -2z m34 -166 c76 -22 48 -58 -43 -55 -25
1 -31 6 -33 29 -5 40 5 62 21 49 6 -5 31 -16 55 -23z m-272 6 c5 -11 11 -12
25 -5 20 11 65 4 87 -13 33 -26 -5 -61 -86 -80 -43 -10 -76 46 -56 97 8 20 23
21 30 1z m-1121 -12 c-15 -35 -18 -144 -4 -169 16 -32 68 -63 126 -78 l46 -12
-70 -56 c-96 -77 -167 -113 -277 -138 l-94 -22 -82 21 c-45 12 -101 32 -124
44 -55 29 -214 136 -222 149 -4 6 22 7 73 3 68 -6 82 -5 97 10 12 13 15 26 10
48 -3 17 -8 44 -9 62 -2 17 -10 48 -19 70 -21 48 -11 58 20 22 13 -15 24 -25
24 -21 0 4 8 1 18 -7 9 -8 35 -24 56 -34 22 -11 53 -28 70 -37 50 -28 85 -22
164 26 40 25 72 42 72 38 0 -4 26 16 57 45 58 54 81 66 68 36z m1508 3 c3 -8
15 -16 27 -18 29 -4 26 -22 -5 -26 -40 -5 -58 16 -46 56 3 8 20 0 24 -12z
m147 -1 c16 -19 -2 -65 -25 -65 -20 0 -47 43 -39 64 8 20 47 21 64 1z m-3840
-166 c0 -22 5 -49 10 -59 16 -30 -10 -37 -31 -9 -21 27 -24 61 -9 90 17 31 30
22 30 -22z m176 33 c19 -13 24 -67 8 -91 -18 -25 -69 -29 -78 -6 -3 8 -16 15
-29 15 -36 0 -53 24 -39 55 15 33 38 31 61 -5 19 -32 31 -30 31 5 0 33 20 45
46 27z m118 -9 c17 -60 18 -93 2 -99 -9 -4 -25 1 -35 10 -16 14 -19 45 -12 99
2 15 40 6 45 -10z m3016 -38 c0 -26 9 -32 26 -15 17 17 45 0 42 -24 -3 -24
-51 -38 -80 -24 -18 9 -26 67 -11 81 13 14 23 6 23 -18z m417 5 c20 -15 34
-18 70 -13 l44 6 -3 -39 c-3 -34 -6 -39 -31 -42 -16 -2 -35 2 -43 9 -10 8 -39
11 -82 9 -128 -7 -150 -5 -170 13 -19 17 -21 17 -30 1 -14 -25 -42 -10 -42 22
0 24 2 25 38 20 20 -4 69 -8 109 -10 67 -3 73 -2 88 20 19 29 20 29 52 4z
m-3034 -104 c4 -10 1 -13 -8 -9 -8 3 -12 9 -9 14 7 12 11 11 17 -5z m-293 -16
c0 -20 21 -26 76 -21 28 2 52 -25 36 -41 -8 -8 -8 -17 -1 -30 5 -10 8 -22 5
-26 -7 -11 -80 -5 -84 7 -2 6 -13 9 -25 6 -46 -10 -74 38 -52 91 15 37 45 46
45 14z m-414 -16 c-3 -9 -6 -40 -6 -70 0 -30 -4 -54 -8 -54 -11 0 -32 46 -32
70 0 30 22 70 38 70 9 0 12 -6 8 -16z m201 -3 c3 -11 12 -22 21 -25 10 -3 23
-9 30 -12 8 -4 12 4 12 25 0 24 4 31 20 31 22 0 33 -31 28 -76 -2 -21 -9 -30
-25 -32 -13 -2 -23 2 -23 9 0 9 -4 9 -15 -1 -19 -15 -94 -19 -120 -6 -22 11
-27 13 -50 15 -19 1 -20 31 -1 31 9 0 12 7 9 20 -3 11 -1 20 5 20 13 0 29 -21
34 -45 5 -21 7 -20 27 38 12 31 40 36 48 8z m3121 -5 c0 -19 -3 -22 -13 -13
-7 7 -10 18 -8 24 8 21 21 14 21 -11z m-3278 -46 c0 -16 5 -32 11 -36 8 -4 8
-9 0 -17 -16 -16 -51 20 -51 53 0 32 7 41 26 33 8 -3 14 -18 14 -33z m535 -10
c0 -16 -6 -26 -17 -28 -14 -3 -18 3 -18 28 0 25 4 31 18 28 11 -2 17 -12 17
-28z m-137 -72 c7 -7 12 -20 12 -29 0 -9 7 -22 15 -29 24 -20 18 -40 -16 -54
-35 -15 -75 -10 -83 9 -2 7 6 28 20 46 13 18 24 41 24 51 0 21 11 23 28 6z
m2956 -14 c3 -9 6 -25 6 -37 -1 -21 -1 -21 -15 3 -8 14 -14 31 -15 38 0 17 17
15 24 -4z m-3204 -45 c0 -35 2 -40 15 -29 8 6 23 9 35 5 17 -5 20 -2 20 24 0
19 5 31 13 31 23 0 37 -23 37 -60 l0 -37 -72 2 c-68 1 -74 3 -81 26 -10 26 6
79 23 79 5 0 10 -19 10 -41z m3306 -116 c6 -23 -7 -42 -29 -43 -14 0 -25 44
-16 62 12 23 38 12 45 -19z m-3032 -92 c3 -5 1 -23 -5 -40 -15 -42 -44 -42
-77 0 -10 14 -10 20 3 33 18 17 70 22 79 7z m3090 -34 c24 -17 17 -39 -14 -44
-25 -4 -40 11 -40 40 0 20 28 23 54 4z m512 -290 c40 7 53 -14 35 -54 l-12
-26 -22 20 c-24 22 -73 25 -85 6 -10 -16 -64 -10 -76 9 -12 20 0 52 17 45 8
-3 19 -2 26 3 7 4 29 4 48 0 19 -5 50 -6 69 -3z m-351 -17 c12 -38 -20 -55
-46 -24 -11 14 -10 18 6 30 25 19 32 18 40 -6z m150 -1 c9 -26 -10 -48 -26
-32 -12 12 -3 53 11 53 5 0 12 -9 15 -21z m-585 -97 c0 -17 -280 -22 -1120
-18 -470 3 -1011 5 -1202 5 -225 1 -348 5 -348 11 0 7 452 10 1335 10 734 0
1335 -4 1335 -8z m-15 -54 c7 -8 -1 -9 -30 -4 -22 3 -629 6 -1350 7 -720 0
-1302 3 -1293 7 31 12 2661 3 2673 -10z m71 -150 c-4 -62 -16 -241 -26 -398
-11 -157 -24 -382 -30 -500 -18 -338 -29 -453 -24 -240 3 96 9 238 15 315 5
77 14 217 19 310 6 94 17 258 25 365 8 107 14 210 15 228 0 17 3 32 6 32 4 0
3 -51 0 -112z m371 10 c-3 -7 -5 -2 -5 12 0 14 2 19 5 13 2 -7 2 -19 0 -25z
m290 -85 c9 -22 -14 -38 -55 -38 -40 0 -67 18 -59 39 8 20 107 19 114 -1z
m-259 -18 c-3 -3 -9 2 -12 12 -6 14 -5 15 5 6 7 -7 10 -15 7 -18z m250 -118
c-3 -17 -11 -21 -56 -23 -40 -2 -55 1 -59 13 -7 19 15 35 44 30 12 -2 27 -1
34 4 19 12 40 -2 37 -24z m-1988 -284 c0 -8 -9 -17 -20 -20 -24 -6 -26 -26 -5
-43 8 -7 15 -24 15 -39 0 -15 5 -32 12 -39 8 -8 8 -15 -2 -27 -18 -21 -30 -19
-30 8 0 12 -4 28 -9 35 -11 19 -46 11 -46 -10 0 -20 -22 -45 -31 -35 -9 9 13
68 30 81 8 6 18 23 22 39 5 21 3 27 -10 27 -18 0 -22 26 -6 32 6 2 26 4 45 5
26 1 35 -3 35 -14z m-2283 -35 c-3 -7 -5 -2 -5 12 0 14 2 19 5 13 2 -7 2 -19
0 -25z m-30 -15 c-3 -10 -5 -4 -5 12 0 17 2 24 5 18 2 -7 2 -21 0 -30z m-10
-100 c-3 -10 -5 -4 -5 12 0 17 2 24 5 18 2 -7 2 -21 0 -30z m-80 -425 c-3 -7
-5 -2 -5 12 0 14 2 19 5 13 2 -7 2 -19 0 -25z"/>
<path d="M3640 4110 c0 -5 5 -10 10 -10 6 0 10 5 10 10 0 6 -4 10 -10 10 -5 0
-10 -4 -10 -10z"/>
<path d="M3637 3943 c-13 -12 -7 -41 9 -47 19 -7 44 10 44 29 0 19 -39 32 -53
18z"/>
<path d="M4330 3910 c-8 -15 -7 -21 7 -28 10 -5 24 -7 31 -5 17 7 15 40 -4 47
-22 8 -22 8 -34 -14z"/>
<path d="M2626 3722 c-3 -5 1 -9 9 -9 8 0 15 4 15 9 0 4 -4 8 -9 8 -6 0 -12
-4 -15 -8z"/>
<path d="M2665 3699 c-4 -6 -5 -12 -2 -15 2 -3 7 2 10 11 7 17 1 20 -8 4z"/>
<path d="M2607 3673 c-4 -3 -7 -11 -7 -17 0 -6 5 -5 12 2 6 6 9 14 7 17 -3 3
-9 2 -12 -2z"/>
<path d="M2666 3652 l-19 -27 24 22 c12 12 21 24 18 27 -2 2 -13 -8 -23 -22z"/>
<path d="M2242 3681 c-10 -6 -10 -10 3 -21 13 -11 14 -10 9 4 -5 12 -2 15 12
9 12 -4 15 -3 10 5 -8 14 -16 15 -34 3z"/>
<path d="M2125 2795 c-22 -19 -27 -27 -18 -36 9 -9 18 -5 37 17 42 48 31 60
-19 19z"/>
<path d="M2446 2811 c-5 -7 47 -61 59 -61 13 0 3 39 -13 53 -20 19 -38 22 -46
8z"/>
<path d="M2290 2727 c0 -17 60 -30 74 -16 13 12 7 16 -36 24 -30 6 -38 4 -38
-8z"/>
<path d="M2375 790 c-8 -13 -1 -24 14 -19 6 3 7 10 2 18 -6 10 -10 10 -16 1z"/>
<path d="M695 4269 c-11 -16 -1 -19 13 -3 7 8 8 14 3 14 -5 0 -13 -5 -16 -11z"/>
<path d="M457 3933 c-4 -3 -7 -11 -7 -17 0 -6 5 -5 12 2 6 6 9 14 7 17 -3 3
-9 2 -12 -2z"/>
<path d="M200 3892 c0 -8 -30 -10 -100 -9 l-100 2 0 -51 c0 -56 23 -93 33 -53
7 26 31 20 35 -8 4 -26 42 -19 42 8 0 30 21 33 46 5 29 -30 31 -31 50 -11 11
10 21 12 39 5 21 -8 25 -7 25 10 0 15 7 20 28 21 l27 1 -30 7 -30 7 30 8 c30
9 30 9 -20 22 -27 7 -55 21 -62 30 -7 10 -13 13 -13 6z m47 -48 c-3 -3 -12 -4
-19 -1 -8 3 -5 6 6 6 11 1 17 -2 13 -5z"/>
<path d="M1376 3645 c-9 -26 -7 -32 5 -12 6 10 9 21 6 23 -2 3 -7 -2 -11 -11z"/>
<path d="M1242 3430 c0 -14 2 -19 5 -12 2 6 2 18 0 25 -3 6 -5 1 -5 -13z"/>
<path d="M4470 3330 c0 -5 5 -10 10 -10 6 0 10 5 10 10 0 6 -4 10 -10 10 -5 0
-10 -4 -10 -10z"/>
<path d="M661 2883 c-1 -6 -4 -20 -7 -30 -5 -17 -5 -17 6 0 6 10 9 23 6 30 -3
9 -5 9 -5 0z"/>
<path d="M917 2614 c-3 -4 1 -13 9 -21 18 -18 27 -13 18 11 -6 17 -16 20 -27
10z"/>
<path d="M0 1050 c0 -5 5 -10 10 -10 6 0 10 5 10 10 0 6 -4 10 -10 10 -5 0
-10 -4 -10 -10z"/>
<path d="M594 243 c-11 -16 -26 -46 -35 -68 l-17 -40 -78 -2 c-72 -3 -77 -2
-60 12 15 11 16 15 5 15 -19 0 -54 -38 -103 -108 l-36 -52 113 0 114 0 33 67
c37 76 91 203 86 203 -2 0 -12 -12 -22 -27z"/>
<path d="M252 193 c-33 -43 -112 -173 -112 -185 0 -17 19 -7 26 15 6 19 38 73
112 185 23 35 6 26 -26 -15z"/>
<path d="M727 193 c-3 -5 -10 -27 -16 -51 -7 -23 -25 -65 -41 -92 l-29 -50 64
0 65 0 0 39 c0 75 -13 166 -21 146 -4 -11 -5 -31 -2 -44 4 -17 3 -22 -6 -16
-9 5 -11 19 -6 41 6 32 2 44 -8 27z"/>
</g>
</svg>
